<?xml version="1.0" encoding="utf-8"?>
<!-- Svg Vector Icons : http://www.onlinewebfonts.com/icon -->
<!DOCTYPE svg PUBLIC "-//W3C//DTD SVG 1.1//EN" "http://www.w3.org/Graphics/SVG/1.1/DTD/svg11.dtd">
<svg version="1.1" xmlns="http://www.w3.org/2000/svg" xmlns:xlink="http://www.w3.org/1999/xlink" x="0px" y="0px" viewBox="0 0 1000 1000" enable-background="new 0 0 1000 1000" xml:space="preserve" fill="white" >
<metadata> Svg Vector Icons : http://www.onlinewebfonts.com/icon </metadata>
<g><g><path d="M889.8,300.2c0.4,8.6,0.6,17.2,0.6,25.9c0,265.8-202.3,572.1-572.1,572.1C204.6,898.2,99,865,10,807.9c15.8,1.8,31.8,2.7,48,2.7c94.3,0,180.9-32,249.7-86c-87.9-1.7-162.2-59.7-187.8-139.7c12.3,2.4,24.8,3.6,37.8,3.6c18.4,0,36.1-2.4,52.9-7.1C118.8,563,49.4,481.8,49.4,384.4c0-0.8,0-1.7,0-2.5c27.2,15.1,58.1,24.1,91.1,25.1c-53.9-36-89.4-97.6-89.4-167.4c0-36.8,9.9-71.4,27.2-101.1c99.1,121.7,247.4,201.7,414.4,210.1c-3.4-14.7-5.2-30-5.2-45.8c0-111,90-201,201.1-201c57.8,0,110.1,24.4,146.6,63.4c45.8-9,88.9-25.7,127.7-48.8c-15.1,47-46.9,86.4-88.4,111.2C915.2,222.8,954,212,990,196C963.1,236.4,929,271.8,889.8,300.2z"/></g><g></g><g></g><g></g><g></g><g></g><g></g><g></g><g></g><g></g><g></g><g></g><g></g><g></g><g></g><g></g></g>
</svg>